0
SECTION
2
HEADER
9
$INSUNITS
70
1
9
$ACADVER
1
AC1014
9
$HANDSEED
5
FFFF
0
ENDSEC
0
SECTION
2
TABLES
0
TABLE
2
VPORT
5
8
100
AcDbSymbolTable
0
ENDTAB
0
TABLE
2
LTYPE
5
5
100
AcDbSymbolTable
0
LTYPE
5
14
100
AcDbSymbolTableRecord
100
AcDbLinetypeTableRecord
2
BYBLOCK
70
0
0
LTYPE
5
15
100
AcDbSymbolTableRecord
100
AcDbLinetypeTableRecord
2
BYLAYER
70
0
0
ENDTAB
0
TABLE
2
LAYER
5
2
100
AcDbSymbolTable
70
2
0
LAYER
5
50
100
AcDbSymbolTableRecord
100
AcDbLayerTableRecord
2
0
70
0
6
CONTINUOUS
0
ENDTAB
0
TABLE
2
STYLE
5
3
100
AcDbSymbolTable
70
1
0
STYLE
5
11
100
AcDbSymbolTableRecord
100
AcDbTextStyleTableRecord
2
STANDARD
70
0
0
ENDTAB
0
TABLE
2
VIEW
5
6
100
AcDbSymbolTable
70
0
0
ENDTAB
0
TABLE
2
UCS
5
7
100
AcDbSymbolTable
70
0
0
ENDTAB
0
TABLE
2
APPID
5
9
100
AcDbSymbolTable
70
2
0
APPID
5
12
100
AcDbSymbolTableRecord
100
AcDbRegAppTableRecord
2
ACAD
70
0
0
ENDTAB
0
TABLE
2
DIMSTYLE
5
A
100
AcDbSymbolTable
70
1
0
ENDTAB
0
TABLE
2
BLOCK_RECORD
5
1
100
AcDbSymbolTable
70
1
0
BLOCK_RECORD
5
1F
100
AcDbSymbolTableRecord
100
AcDbBlockTableRecord
2
*MODEL_SPACE
0
BLOCK_RECORD
5
1B
100
AcDbSymbolTableRecord
100
AcDbBlockTableRecord
2
*PAPER_SPACE
0
ENDTAB
0
ENDSEC
0
SECTION
2
BLOCKS
0
BLOCK
5
20
100
AcDbEntity
100
AcDbBlockBegin
2
*MODEL_SPACE
0
ENDBLK
5
21
100
AcDbEntity
100
AcDbBlockEnd
0
BLOCK
5
1C
100
AcDbEntity
100
AcDbBlockBegin
2
*PAPER_SPACE
0
ENDBLK
5
1D
100
AcDbEntity
100
AcDbBlockEnd
0
ENDSEC
0
SECTION
2
ENTITIES
0
LWPOLYLINE
5
100
100
AcDbEntity
8
0
100
AcDbPolyline
90
16
70
1
43
0.0
10
-2.2832209583831906
20
24.591632540319612
10
-2.2832209583831906
20
24.966632540319612
42
0.4142135623730957
10
-2.7832209583831915
20
25.466632540319612
10
-4.7832209583831906
20
25.466632540319612
42
0.41421356237309503
10
-5.2832209583831906
20
24.966632540319612
10
-5.2832209583831897
20
24.591632540319612
42
-0.41421356237309664
10
-5.4082209583831915
20
24.466632540319608
10
-7.4394709583831897
20
24.466632540319608
42
-0.41421356237309503
10
-7.5644709583831906
20
24.591632540319612
10
-7.5644709583831879
20
48.404132540319608
42
-0.41421356237309503
10
-7.4394709583831897
20
48.529132540319608
10
-1.3769709583831933
20
48.529132540319601
42
-0.41421356237308682
10
-1.2519709583831911
20
48.404132540319608
10
-1.2519709583831899
20
24.591632540319612
42
-0.41421356237310075
10
-1.3769709583831933
20
24.466632540319608
10
-2.1582209583831933
20
24.466632540319608
42
-0.41421356237308932
0
LWPOLYLINE
5
101
100
AcDbEntity
8
0
100
AcDbPolyline
90
8
70
1
43
0.0
10
-2.6216326580338425
20
42.72288254031961
10
-2.6216326580338434
20
44.429132540319607
42
0.41421356237309609
10
-2.7216326580338435
20
44.529132540319608
10
-5.4569709583835637
20
44.529132540319608
42
0.41421356237309709
10
-5.5569709583835643
20
44.429132540319607
10
-5.5569709583835643
20
42.72288254031961
42
0.41421356237311352
10
-5.4569709583835637
20
42.622882540319608
10
-2.7216326580338435
20
42.622882540319608
42
0.41421356237311446
0
CIRCLE
5
102
100
AcDbEntity
8
0
100
AcDbCircle
10
-2.4044709583835648
20
42.559132540319609
30
0
40
0.093750000000001277
0
CIRCLE
5
103
100
AcDbEntity
8
0
100
AcDbCircle
10
-2.3710142108035788
20
44.529132540319608
30
0
40
0.0937500000000005
0
CIRCLE
5
104
100
AcDbEntity
8
0
100
AcDbCircle
10
-5.9944709583835643
20
42.559132540319609
30
0
40
0.093750000000001277
0
CIRCLE
5
105
100
AcDbEntity
8
0
100
AcDbCircle
10
-5.9944709583835643
20
44.529132540319608
30
0
40
0.093750000000001277
0
CIRCLE
5
106
100
AcDbEntity
8
0
100
AcDbCircle
10
-6.9394709583831871
20
25.154132540319615
30
0
40
0.18750000000000006
0
CIRCLE
5
107
100
AcDbEntity
8
0
100
AcDbCircle
10
-6.9394709583831897
20
46.154132540319608
30
0
40
0.18749999999999983
0
CIRCLE
5
108
100
AcDbEntity
8
0
100
AcDbCircle
10
-1.9394709583831904
20
46.154132540319608
30
0
40
0.18749999999999983
0
ENDSEC
0
SECTION
2
OBJECTS
0
DICTIONARY
5
C
100
AcDbDictionary
3
ACAD_GROUP
350
D
3
ACAD_MLINESTYLE
350
17
0
DICTIONARY
5
D
100
AcDbDictionary
0
DICTIONARY
5
1A
330
C
100
AcDbDictionary
0
DICTIONARY
5
17
100
AcDbDictionary
0
ENDSEC
0
EOF
