0
SECTION
2
HEADER
9
$INSUNITS
70
1
9
$ACADVER
1
AC1014
9
$HANDSEED
5
FFFF
0
ENDSEC
0
SECTION
2
TABLES
0
TABLE
2
VPORT
5
8
100
AcDbSymbolTable
0
ENDTAB
0
TABLE
2
LTYPE
5
5
100
AcDbSymbolTable
0
LTYPE
5
14
100
AcDbSymbolTableRecord
100
AcDbLinetypeTableRecord
2
BYBLOCK
70
0
0
LTYPE
5
15
100
AcDbSymbolTableRecord
100
AcDbLinetypeTableRecord
2
BYLAYER
70
0
0
ENDTAB
0
TABLE
2
LAYER
5
2
100
AcDbSymbolTable
70
2
0
LAYER
5
50
100
AcDbSymbolTableRecord
100
AcDbLayerTableRecord
2
0
70
0
6
CONTINUOUS
0
ENDTAB
0
TABLE
2
STYLE
5
3
100
AcDbSymbolTable
70
1
0
STYLE
5
11
100
AcDbSymbolTableRecord
100
AcDbTextStyleTableRecord
2
STANDARD
70
0
0
ENDTAB
0
TABLE
2
VIEW
5
6
100
AcDbSymbolTable
70
0
0
ENDTAB
0
TABLE
2
UCS
5
7
100
AcDbSymbolTable
70
0
0
ENDTAB
0
TABLE
2
APPID
5
9
100
AcDbSymbolTable
70
2
0
APPID
5
12
100
AcDbSymbolTableRecord
100
AcDbRegAppTableRecord
2
ACAD
70
0
0
ENDTAB
0
TABLE
2
DIMSTYLE
5
A
100
AcDbSymbolTable
70
1
0
ENDTAB
0
TABLE
2
BLOCK_RECORD
5
1
100
AcDbSymbolTable
70
1
0
BLOCK_RECORD
5
1F
100
AcDbSymbolTableRecord
100
AcDbBlockTableRecord
2
*MODEL_SPACE
0
BLOCK_RECORD
5
1B
100
AcDbSymbolTableRecord
100
AcDbBlockTableRecord
2
*PAPER_SPACE
0
ENDTAB
0
ENDSEC
0
SECTION
2
BLOCKS
0
BLOCK
5
20
100
AcDbEntity
100
AcDbBlockBegin
2
*MODEL_SPACE
0
ENDBLK
5
21
100
AcDbEntity
100
AcDbBlockEnd
0
BLOCK
5
1C
100
AcDbEntity
100
AcDbBlockBegin
2
*PAPER_SPACE
0
ENDBLK
5
1D
100
AcDbEntity
100
AcDbBlockEnd
0
ENDSEC
0
SECTION
2
ENTITIES
0
LWPOLYLINE
5
100
100
AcDbEntity
8
0
100
AcDbPolyline
90
32
70
1
43
0.0
10
0.11250000000092321
20
1.2910843575147812
10
0.112500000000926
20
28.853584357514777
42
-0.41421356237309503
10
0.23750000000092419
20
28.978584357514773
10
1.2375000000009237
20
28.97858435751478
42
0.41421356237309503
10
1.3625000000009249
20
29.103584357514777
10
1.3625000000009249
20
30.103584357514773
42
0.41421356237309503
10
1.2375000000009237
20
30.228584357514773
10
0.23750000000092419
20
30.228584357514773
42
-0.41421356237309503
10
0.11250000000092321
20
30.353584357514777
10
0.11250000000092041
20
31.853584357514773
42
-0.41421356237309503
10
0.23750000000092419
20
31.978584357514777
10
18.237500000000921
20
31.978584357514769
42
-0.41421356237309503
10
18.362500000000921
20
31.853584357514773
10
18.362500000000924
20
30.353584357514777
42
-0.41421356237309503
10
18.237500000000921
20
30.228584357514773
10
17.237500000000921
20
30.228584357514773
42
0.41421356237309503
10
17.112500000000921
20
30.103584357514773
10
17.112500000000921
20
29.103584357514777
42
0.41421356237309503
10
17.237500000000921
20
28.978584357514773
10
18.237500000000921
20
28.97858435751478
42
-0.41421356237309503
10
18.362500000000921
20
28.853584357514769
10
18.362500000000921
20
1.2910843575147786
42
-0.41421356237309503
10
18.237500000000921
20
1.1660843575147786
10
17.237500000000921
20
1.1660843575147786
42
0.41421356237309503
10
17.112500000000921
20
1.0410843575147786
10
17.112500000000921
20
0.04108435751477859
42
-0.41421356237309476
10
16.987500000000921
20
-0.083915642485221292
10
1.4875000000009231
20
-0.083915642485219502
42
-0.41421356237309287
10
1.3625000000009249
20
0.041084357514777778
10
1.3625000000009164
20
1.0410843575147815
42
0.41421356237309304
10
1.2375000000009153
20
1.1660843575147803
10
0.23750000000092419
20
1.1660843575147797
42
-0.41421356237309626
0
ENDSEC
0
SECTION
2
OBJECTS
0
DICTIONARY
5
C
100
AcDbDictionary
3
ACAD_GROUP
350
D
3
ACAD_MLINESTYLE
350
17
0
DICTIONARY
5
D
100
AcDbDictionary
0
DICTIONARY
5
1A
330
C
100
AcDbDictionary
0
DICTIONARY
5
17
100
AcDbDictionary
0
ENDSEC
0
EOF
